<svg id="shopping-cart_4_" data-name="shopping-cart (4)" xmlns="http://www.w3.org/2000/svg" width="24.942" height="21.922" viewBox="0 0 24.942 21.922">
    <path id="Path_714" data-name="Path 714" d="M8.087,14.614h13.2a.728.728,0,0,0,.7-.53l2.923-10.23a.73.73,0,0,0-.7-.931H6.4L5.877.572A.731.731,0,0,0,5.164,0H.731a.731.731,0,1,0,0,1.461H4.577L7.216,13.336a2.191,2.191,0,0,0,.871,4.2h13.2a.731.731,0,0,0,0-1.461H8.087a.731.731,0,1,1,0-1.461Zm0,0" transform="translate(0)" fill="#69a03a"/>
    <path id="Path_715" data-name="Path 715" d="M151,362.2A2.192,2.192,0,1,0,153.192,360,2.195,2.195,0,0,0,151,362.2Zm0,0" transform="translate(-143.644 -342.467)" fill="#69a03a"/>
    <path id="Path_716" data-name="Path 716" d="M362,362.2A2.192,2.192,0,1,0,364.2,360,2.195,2.195,0,0,0,362,362.2Zm0,0" transform="translate(-344.369 -342.467)" fill="#69a03a"/>
  </svg>
  