<svg xmlns="http://www.w3.org/2000/svg" width="268.681" height="151.494" viewBox="0 0 268.681 151.494">
    <g id="Group_2805" data-name="Group 2805" transform="translate(-53.742 -215)">
        <path id="Path_21" data-name="Path 21" d="M269.9,439.1c-.916,7.173-4.282,13.737-7.874,20.059-.119.215-.241.427-.366.642H224.329c-.755-.2-1.5-.411-2.242-.642a40.808,40.808,0,0,1-11.787-5.8c-13.733-9.895-19.018-28.591-16.631-45.344,1.484-10.409,6.052-21.035,14.948-26.641a22.442,22.442,0,0,1,16.136-2.827c.141.026.283.058.427.087a16.651,16.651,0,0,1,11.154,7.842c4.24,7.533,1.715,16.866-.369,25.25s-3.206,18.42,2.827,24.6a15.391,15.391,0,0,1,17.9-20c.437.093.867.2,1.291.328a14.329,14.329,0,0,1,2.946,1.234C268.041,421.865,270.923,431.017,269.9,439.1Z" transform="translate(-136.927 -93.31)" fill="#c5dbb2"/>
        <path id="Path_22" data-name="Path 22" d="M291.665,460.074c1.034.241,2.072.453,3.116.642h-5.644c-.739-.2-1.475-.411-2.2-.642q-2.4-.752-4.735-1.725a42.48,42.48,0,0,1-16.316-11.764,33.209,33.209,0,0,1-5.146-8.407,38.183,38.183,0,0,1-2.634-10.759,76.512,76.512,0,0,1,1.516-22.818,95.237,95.237,0,0,1,7.44-22.317q.612-1.277,1.266-2.538a.5.5,0,0,1,.331-.283.571.571,0,0,1,.427.087.677.677,0,0,1,.267.893,94.141,94.141,0,0,0-7.9,21.511,82.8,82.8,0,0,0-2.348,22.391c.315,7,2.143,13.878,6.29,19.6a39.542,39.542,0,0,0,14.8,12.146,54.333,54.333,0,0,0,11.469,3.983Z" transform="translate(-180.827 -94.222)" fill="#fff"/>
        <path id="Path_23" data-name="Path 23" d="M380.146,540.559h-1.664c-.186-.212-.366-.427-.543-.642a35.47,35.47,0,0,1-7.466-15.953,34.609,34.609,0,0,1,2.984-21.54,35.413,35.413,0,0,1,3.225-5.339c.437.093.867.2,1.291.328a33.479,33.479,0,0,0,1.6,42.5C379.757,540.132,379.95,540.347,380.146,540.559Z" transform="translate(-256.374 -174.065)" fill="#fff"/>
        <path id="Path_24" data-name="Path 24" d="M868.317,581.393a14.718,14.718,0,0,0,2.078,5.294c.031.057.064.113.1.17h9.852c.2-.052.4-.109.592-.17a10.771,10.771,0,0,0,3.111-1.53c3.624-2.611,5.019-7.546,4.389-11.967-.392-2.747-1.6-5.552-3.945-7.031a5.923,5.923,0,0,0-4.259-.746l-.113.023a4.394,4.394,0,0,0-2.944,2.07c-1.119,1.988-.453,4.451.1,6.664s.846,4.861-.746,6.494a4.062,4.062,0,0,0-4.723-5.279c-.115.025-.229.053-.341.086a3.776,3.776,0,0,0-.777.326C868.807,576.843,868.047,579.259,868.317,581.393Z" transform="translate(-592.819 -220.362)" fill="#c5dbb2"/>
        <path id="Path_25" data-name="Path 25" d="M884.876,586.931c-.273.064-.547.12-.822.17h1.49c.2-.053.389-.109.582-.17q.635-.2,1.25-.455a11.211,11.211,0,0,0,4.306-3.1,8.759,8.759,0,0,0,1.358-2.219,10.073,10.073,0,0,0,.7-2.839,20.192,20.192,0,0,0-.4-6.022,25.135,25.135,0,0,0-1.964-5.89q-.161-.337-.334-.67a.131.131,0,0,0-.087-.075.152.152,0,0,0-.113.023.179.179,0,0,0-.07.236,24.841,24.841,0,0,1,2.084,5.677,21.848,21.848,0,0,1,.62,5.909,9.429,9.429,0,0,1-1.66,5.173,10.437,10.437,0,0,1-3.907,3.206A14.338,14.338,0,0,1,884.876,586.931Z" transform="translate(-603.536 -220.606)" fill="#fff"/>
        <path id="Path_26" data-name="Path 26" d="M876.437,608.172h.439c.049-.056.1-.113.143-.17a9.361,9.361,0,0,0,1.97-4.21,9.134,9.134,0,0,0-.788-5.685,9.355,9.355,0,0,0-.851-1.409c-.115.025-.229.053-.341.086A8.835,8.835,0,0,1,876.588,608C876.539,608.059,876.488,608.116,876.437,608.172Z" transform="translate(-598.366 -241.678)" fill="#fff"/>
        <path id="Path_27" data-name="Path 27" d="M526.168,453.843H495.335l-.327-9.48a2.846,2.846,0,0,1,3.19-2.923l17.943,2.2h0a10.052,10.052,0,0,1,10.025,10.045Z" transform="translate(-340.835 -152.297)" fill="#69a03a"/>
        <path id="Path_28" data-name="Path 28" d="M499.193,375.414H477.687a2.177,2.177,0,0,0-2.178,2.178V399.1a2.177,2.177,0,0,0,2.178,2.178h21.505a2.177,2.177,0,0,0,2.178-2.178V377.592A2.177,2.177,0,0,0,499.193,375.414Z" transform="translate(-327.686 -112.769)" fill="#ccc"/>
        <path id="Path_29" data-name="Path 29" d="M505.229,407.316l-10.154,1.977a2.316,2.316,0,0,1-2.713-1.829l-.781-4.008a2.316,2.316,0,0,1,1.829-2.713l10.154-1.977a2.316,2.316,0,0,1,2.713,1.829l.781,4.008A2.316,2.316,0,0,1,505.229,407.316Z" transform="translate(-338.555 -128.041)" fill="#3f3d56"/>
        <path id="Path_30" data-name="Path 30" d="M510.089,408.452l-7.749,1.509a.544.544,0,0,1-.208-1.069l7.749-1.509a.544.544,0,1,1,.208,1.069Z" transform="translate(-345.44 -134.029)" fill="#fff"/>
        <path id="Path_31" data-name="Path 31" d="M513.3,415.408l-4.008.78a.544.544,0,1,1-.208-1.069l4.008-.781a.544.544,0,0,1,.208,1.069Z" transform="translate(-350.154 -138.171)" fill="#fff"/>
        <path id="Path_32" data-name="Path 32" d="M501.37,377.592v2.858H475.51v-2.858a2.177,2.177,0,0,1,2.178-2.178h21.505A2.177,2.177,0,0,1,501.37,377.592Z" transform="translate(-327.686 -115.184)" fill="#b3b3b3"/>
        <path id="Path_33" data-name="Path 33" d="M641.184,367.129a3.451,3.451,0,0,0-4.881-2.045L606.717,354.47l-1.3,7.391,29.492,8.11a3.47,3.47,0,0,0,6.278-2.841Z" transform="translate(-415.39 -101.989)" fill="#ffb8b8"/>
        <path id="Path_34" data-name="Path 34" d="M641.184,367.129a3.451,3.451,0,0,0-4.881-2.045L606.717,354.47l-1.3,7.391,29.492,8.11a3.47,3.47,0,0,0,6.278-2.841Z" transform="translate(-415.39 -101.989)" opacity="0.2"/>
        <path id="Path_35" data-name="Path 35" d="M595.1,350.136l-2.794,7.3a1.547,1.547,0,0,1-2.2.8l-6.79-3.822a4.3,4.3,0,1,1,3.1-8.018l7.582,1.682a1.547,1.547,0,0,1,1.11,2.064Z" transform="translate(-398.713 -97.63)" fill="#69a03a"/>
        <path id="Path_36" data-name="Path 36" d="M701.611,414.914l-10.6,4.819,1.392,5.24a81.512,81.512,0,0,1,2.1,31.049h0l7.751,1.619,6.425-16.384-2.249-18.632Z" transform="translate(-473.328 -130.792)" fill="#69a03a"/>
        <path id="Path_37" data-name="Path 37" d="M761.468,490.415c-6.965,0-12.642,5.063-12.917,11.4h25.834C774.109,495.478,768.433,490.415,761.468,490.415Z" transform="translate(-512.15 -180.628)" fill="#3f3d56"/>
        <path id="Path_38" data-name="Path 38" d="M547.82,438.77c-.362-28.623-16.664-25.99-16.664-25.99s.3,8.909.451,9.186c10.388,19.654-6.756,42.7-28.578,38.456q-.617-.12-1.186-.243a11.109,11.109,0,0,1-8.726-12.453c2.15-17.263-8.542-16.957-8.542-16.957H468.941l-8.119-7.307a2.36,2.36,0,0,0-3.794.938l-1.045,2.835s-15.42,1.606-14.135,16.7h4.767a9.628,9.628,0,0,0,.051,1.285l35.579-.289a3.894,3.894,0,0,1,3.935,3.758,3.776,3.776,0,0,1-3.9,3.789l-5.736-.191c-1.767,7.871,2.57,13.171,7.349,16.5a26.711,26.711,0,0,0,15.3,4.7h15.583c20.239,0,23.772-17.026,23.772-17.026C549.146,451.973,547.82,438.77,547.82,438.77Z" transform="translate(-304.488 -116.801)" fill="#3f3d56"/>
        <circle id="Ellipse_9" data-name="Ellipse 9" cx="18.07" cy="18.07" r="18.07" transform="translate(230.301 329.872)" fill="#3f3d56"/>
        <circle id="Ellipse_10" data-name="Ellipse 10" cx="4.429" cy="4.429" r="4.429" transform="translate(243.877 343.513)" fill="#fff"/>
        <circle id="Ellipse_11" data-name="Ellipse 11" cx="20.801" cy="20.801" r="20.801" transform="translate(135.39 324.41)" fill="#3f3d56"/>
        <circle id="Ellipse_12" data-name="Ellipse 12" cx="5.098" cy="5.098" r="5.098" transform="translate(151.133 340.113)" fill="#fff"/>
        <path id="Path_39" data-name="Path 39" d="M682.472,391.058l-3.814-10.36a4.381,4.381,0,0,1,2.6-5.625l10.935-4.026a7.709,7.709,0,1,1,5.328,14.469Z" transform="translate(-464.758 -110.755)" fill="#3f3d56"/>
        <path id="Path_40" data-name="Path 40" d="M732.013,378.626a7.565,7.565,0,0,1-2.827,5.892,9.633,9.633,0,0,1-6.328-13.268,7.551,7.551,0,0,1,9.155,7.376Z" transform="translate(-494.324 -111.843)" fill="#69a03a"/>
        <ellipse id="Ellipse_13" data-name="Ellipse 13" cx="4.497" cy="5.461" rx="4.497" ry="5.461" transform="translate(135.12 306.282)" fill="#69a03a"/>
        <path id="Path_41" data-name="Path 41" d="M450.07,270.423h3.939l1.874-10.215h-5.813Z" transform="translate(-250.43 65.178)" fill="#ffb8b8"/>
        <path id="Path_42" data-name="Path 42" d="M632.444,555.587H640.2a4.943,4.943,0,0,1,4.943,4.943v.161h-12.7Z" transform="translate(-433.782 -219.763)" fill="#2f2e41"/>
        <path id="Path_43" data-name="Path 43" d="M593.578,467.959q-.069,0-.138-.007l-5.451-.4a1.446,1.446,0,0,1-1.224-1.937l7.294-16.388a1.124,1.124,0,0,0-.063-.9,1.109,1.109,0,0,0-.71-.565c-3.43-.9-12.231-3.284-19.849-6.077-3.264-1.2-5.32-2.926-6.11-5.141a7.256,7.256,0,0,1,.566-5.693l.052-.088,7.169.652,7.771.661,17.031,9.132a6.453,6.453,0,0,1,2.833,8.283L594.9,467.1A1.445,1.445,0,0,1,593.578,467.959Z" transform="translate(-389.419 -140.877)" fill="#2f2e41"/>
        <circle id="Ellipse_14" data-name="Ellipse 14" cx="7.89" cy="7.89" r="7.89" transform="translate(178.962 219.87)" fill="#ffb8b8"/>
        <path id="Path_44" data-name="Path 44" d="M443.07,273.423h3.938l1.874-10.215h-5.813Z" transform="translate(-245.699 63.45)" fill="#ffb8b8"/>
        <path id="Path_45" data-name="Path 45" d="M625.444,558.587H633.2a4.943,4.943,0,0,1,4.943,4.943v.161h-12.7Z" transform="translate(-429.052 -219.781)" fill="#2f2e41"/>
        <path id="Path_46" data-name="Path 46" d="M586.578,470.959q-.069,0-.138-.007l-5.45-.4a1.446,1.446,0,0,1-1.224-1.937l7.294-16.388a1.124,1.124,0,0,0-.063-.9,1.108,1.108,0,0,0-.71-.565c-3.43-.9-12.231-3.284-19.849-6.077-3.264-1.2-5.32-2.926-6.11-5.141a7.255,7.255,0,0,1,.566-5.693l.052-.088,7.169.652,7.771.661,17.031,9.132a6.453,6.453,0,0,1,2.833,8.283L587.9,470.1A1.445,1.445,0,0,1,586.578,470.959Z" transform="translate(-384.69 -142.5)" fill="#2f2e41"/>
        <path id="Path_47" data-name="Path 47" d="M576.291,339.685l-8.352-2.891s-5.243,4.028-2.725,14.022a24.74,24.74,0,0,1-1.092,15.523,15.963,15.963,0,0,1-.841,1.777s9.316,11.244,17.99,2.891L577.9,354.784S583.2,344.022,576.291,339.685Z" transform="translate(-387.02 -90.018)" fill="#69a03a"/>
        <path id="Path_48" data-name="Path 48" d="M572.595,288.5c-1.123-1.681-2.009-4.012-.773-5.611,1.22-1.579,3.628-1.346,5.5-2.045a6.223,6.223,0,0,0,3.642-6.771,8.033,8.033,0,0,0-5.289-5.939,11.452,11.452,0,0,0-8.138.443,12.427,12.427,0,0,0-7,7.092,9.554,9.554,0,0,0,1.828,9.583c2.526,2.659,6.491,3.368,10.159,3.325" transform="translate(-384.774 -52.585)" fill="#2f2e41"/>
        <path id="Path_49" data-name="Path 49" d="M499.3,278.985c-1.415,1.152-3.574.64-5.093-.371s-2.752-2.451-4.4-3.243c-2.9-1.4-6.4-.468-9.22,1.079s-5.32,3.686-8.3,4.9-6.78,1.275-9.035-1.019a8.266,8.266,0,0,0,12.114,9.757c3.264-1.988,5.066-6.156,8.727-7.254,2.026-.607,4.2-.118,6.248.412s4.182,1.1,6.248.651,4-2.308,3.736-4.406Z" transform="translate(-319.058 -57.404)" fill="#2f2e41"/>
        <path id="Path_50" data-name="Path 50" d="M639.166,375.318a3.451,3.451,0,0,0-5.1-1.427l-30.67-6.883-.381,7.5,30.267,4.409a3.47,3.47,0,0,0,5.88-3.594Z" transform="translate(-413.769 -109.534)" fill="#ffb8b8"/>
        <path id="Path_51" data-name="Path 51" d="M590.462,363.291l-1.872,7.588a1.547,1.547,0,0,1-2.089,1.061l-7.21-2.955a4.3,4.3,0,0,1,2.083-8.339l7.732.733a1.547,1.547,0,0,1,1.356,1.911Z" transform="translate(-395.655 -105.974)" fill="#69a03a"/>
        <circle id="Ellipse_15" data-name="Ellipse 15" cx="2.249" cy="2.249" r="2.249" transform="translate(219.711 269.398)" fill="#69a03a"/>
        <path id="Path_52" data-name="Path 52" d="M454.181,630.736a.324.324,0,0,1-.324.321H185.824a.321.321,0,1,1,0-.643H453.857A.324.324,0,0,1,454.181,630.736Z" transform="translate(-131.758 -264.563)" fill="#3f3d56"/>
    </g>
</svg>
