<svg xmlns="http://www.w3.org/2000/svg" width="255.677" height="245.144" viewBox="0 0 255.677 245.144">
    <path id="Path_53" data-name="Path 53" d="M356.155,285.856h0a37.155,37.155,0,0,1,37.155,37.155v89.02H319v-89.02A37.155,37.155,0,0,1,356.155,285.856Z" transform="translate(-228.322 -196.915)" fill="#c5dbb2"/>
    <rect id="Rectangle_14" data-name="Rectangle 14" width="6.673" height="22.141" transform="translate(109.025 132.705)" fill="#fff"/>
    <rect id="Rectangle_15" data-name="Rectangle 15" width="22.141" height="20.018" transform="translate(116.762 156.894)" fill="#fff"/>
    <rect id="Rectangle_16" data-name="Rectangle 16" width="22.141" height="22.141" transform="translate(116.762 132.705)" fill="#fff"/>
    <path id="Path_54" data-name="Path 54" d="M642.5,441.874h6.673v-.455a19.511,19.511,0,0,0-6.673-14.709Z" transform="translate(-502.532 -311.196)" fill="#fff"/>
    <path id="Path_55" data-name="Path 55" d="M563.5,430.724h22.141V414.141a19.468,19.468,0,0,0-11.071-3.435h0a19.469,19.469,0,0,0-11.071,3.435Z" transform="translate(-446.737 -300.071)" fill="#fff"/>
    <path id="Path_56" data-name="Path 56" d="M542.173,561.706H535.5v15.165a4.853,4.853,0,0,0,4.853,4.853h1.82Z" transform="translate(-426.475 -404.812)" fill="#fff"/>
    <path id="Path_57" data-name="Path 57" d="M642.5,561.706v20.018h1.82a4.853,4.853,0,0,0,4.853-4.853V561.706Z" transform="translate(-502.532 -404.812)" fill="#fff"/>
    <path id="Path_58" data-name="Path 58" d="M542.173,441.874V426.709a19.511,19.511,0,0,0-6.673,14.709v.455Z" transform="translate(-426.475 -311.196)" fill="#fff"/>
    <rect id="Rectangle_17" data-name="Rectangle 17" width="6.673" height="22.141" transform="translate(139.968 132.705)" fill="#fff"/>
    <circle id="Ellipse_16" data-name="Ellipse 16" cx="3.943" cy="3.943" r="3.943" transform="translate(154.248 154.364)"/>
    <rect id="Rectangle_18" data-name="Rectangle 18" width="5.237" height="17.378" transform="translate(36.212 120.189)" fill="#c5dbb2"/>
    <rect id="Rectangle_19" data-name="Rectangle 19" width="17.378" height="17.378" transform="translate(40.797 120.189)" fill="#c5dbb2"/>
    <rect id="Rectangle_20" data-name="Rectangle 20" width="5.237" height="17.378" transform="translate(58.829 120.189)" fill="#c5dbb2"/>
    <path id="Path_59" data-name="Path 59" d="M361.872,409.891h5.237v-.357a15.314,15.314,0,0,0-5.237-11.545Z" transform="translate(-303.043 -291.288)" fill="#c5dbb2"/>
    <rect id="Rectangle_21" data-name="Rectangle 21" width="17.378" height="15.712" transform="translate(40.797 139.172)" fill="#c5dbb2"/>
    <path id="Path_60" data-name="Path 60" d="M283.127,503.945H277.89v11.9a3.809,3.809,0,0,0,3.809,3.809h1.428Z" transform="translate(-241.678 -364.772)" fill="#c5dbb2"/>
    <path id="Path_61" data-name="Path 61" d="M361.872,503.945v15.712H363.3a3.809,3.809,0,0,0,3.809-3.809v-11.9Z" transform="translate(-303.043 -364.772)" fill="#c5dbb2"/>
    <path id="Path_62" data-name="Path 62" d="M283.127,409.891v-11.9a15.314,15.314,0,0,0-5.237,11.545v.357Z" transform="translate(-241.678 -291.288)" fill="#c5dbb2"/>
    <path id="Path_63" data-name="Path 63" d="M299.866,401.14h17.378V388.124a15.28,15.28,0,0,0-8.689-2.7h0a15.281,15.281,0,0,0-8.689,2.7Z" transform="translate(-259.07 -282.557)" fill="#c5dbb2"/>
    <path id="Path_64" data-name="Path 64" d="M297.521,550.524H253.243a1.072,1.072,0,0,1-1.071-1.071V546.6a1.073,1.073,0,0,1,1.071-1.071h44.279a1.073,1.073,0,0,1,1.071,1.071v2.857A1.073,1.073,0,0,1,297.521,550.524Z" transform="translate(-223.76 -393.683)" fill="#c5dbb2"/>
    <rect id="Rectangle_22" data-name="Rectangle 22" width="5.237" height="17.378" transform="translate(191.608 120.189)" fill="#c5dbb2"/>
    <rect id="Rectangle_23" data-name="Rectangle 23" width="17.378" height="17.378" transform="translate(197.499 120.189)" fill="#c5dbb2"/>
    <rect id="Rectangle_24" data-name="Rectangle 24" width="5.237" height="17.378" transform="translate(214.225 120.189)" fill="#c5dbb2"/>
    <path id="Path_65" data-name="Path 65" d="M904.872,409.891h5.237v-.357a15.314,15.314,0,0,0-5.237-11.545Z" transform="translate(-690.647 -291.288)" fill="#c5dbb2"/>
    <rect id="Rectangle_25" data-name="Rectangle 25" width="17.378" height="15.712" transform="translate(197.499 139.172)" fill="#c5dbb2"/>
    <path id="Path_66" data-name="Path 66" d="M826.127,503.945H820.89v11.9a3.809,3.809,0,0,0,3.809,3.809h1.428Z" transform="translate(-629.282 -364.772)" fill="#c5dbb2"/>
    <path id="Path_67" data-name="Path 67" d="M904.872,503.945v15.712H906.3a3.809,3.809,0,0,0,3.809-3.809v-11.9Z" transform="translate(-690.647 -364.772)" fill="#c5dbb2"/>
    <path id="Path_68" data-name="Path 68" d="M826.127,409.891v-11.9a15.314,15.314,0,0,0-5.237,11.545v.357Z" transform="translate(-629.282 -291.288)" fill="#c5dbb2"/>
    <path id="Path_69" data-name="Path 69" d="M842.866,401.14h17.378V388.124a15.28,15.28,0,0,0-8.689-2.7h0a15.281,15.281,0,0,0-8.689,2.7Z" transform="translate(-645.367 -282.557)" fill="#c5dbb2"/>
    <path id="Path_70" data-name="Path 70" d="M840.521,550.524H796.243a1.073,1.073,0,0,1-1.071-1.071V546.6a1.073,1.073,0,0,1,1.071-1.071h44.279a1.073,1.073,0,0,1,1.071,1.071v2.857A1.072,1.072,0,0,1,840.521,550.524Z" transform="translate(-614.219 -393.683)" fill="#c5dbb2"/>
    <path id="Path_71" data-name="Path 71" d="M412.7,356.009H188.533A9.791,9.791,0,0,1,179,346V193.437a9.791,9.791,0,0,1,9.533-10.009H412.7a9.791,9.791,0,0,1,9.533,10.009V346A9.791,9.791,0,0,1,412.7,356.009ZM188.533,184.035a9.2,9.2,0,0,0-8.955,9.4V346a9.2,9.2,0,0,0,8.955,9.4H412.7a9.2,9.2,0,0,0,8.955-9.4V193.437a9.2,9.2,0,0,0-8.955-9.4Z" transform="translate(-172.782 -140.589)" fill="#ccc"/>
    <path id="Path_72" data-name="Path 72" d="M168.068,110.12a9.767,9.767,0,0,1-9.538-9.226,9.948,9.948,0,0,1,8-10.707L283.959,49.772a13.6,13.6,0,0,1,4.609-.006L406.15,90.194a9.986,9.986,0,0,1,7.9,11.52,9.635,9.635,0,0,1-11,8.274c-1.267-.19-115.678-17.3-116.722-17.348-1.039.045-115.562,17.175-116.719,17.348A9.17,9.17,0,0,1,168.068,110.12Z" transform="translate(-158.499 -49.572)" fill="#c5dbb2"/>
    <path id="Path_73" data-name="Path 73" d="M762.137,645.334a2.844,2.844,0,0,0-.94-4.259l.562-6.475-3.852-1.3-.665,9.155a2.86,2.86,0,0,0,4.895,2.88Z" transform="translate(-583.889 -454.525)" fill="#ffb8b8"/>
    <path id="Path_74" data-name="Path 74" d="M667.052,758.658h-3.468l-1.649-13.375h5.118Z" transform="translate(-470.454 -516.995)" fill="#ffb8b8"/>
    <path id="Path_75" data-name="Path 75" d="M649.534,786.112h6.687v4.21h-10.9A4.21,4.21,0,0,1,649.534,786.112Z" transform="translate(-458.852 -545.44)" fill="#2f2e41"/>
    <path id="Path_76" data-name="Path 76" d="M634.106,730.287l-3.367.827-4.794-12.594,4.97-1.221Z" transform="translate(-444.978 -497.498)" fill="#ffb8b8"/>
    <path id="Path_77" data-name="Path 77" d="M4.21,0H10.9V4.21H0A4.21,4.21,0,0,1,4.211,0Z" transform="matrix(0.971, -0.239, 0.239, 0.971, 179.002, 234.25)" fill="#2f2e41"/>
    <path id="Path_78" data-name="Path 78" d="M784.695,713.023a1.277,1.277,0,0,1-1.273-1.146l-3.99-37.171-3.472,11.367,4.918,17.753a1.282,1.282,0,0,1-.76,1.534l-3.91,1.564a1.283,1.283,0,0,1-1.688-.769l-6.027-17.291a15.653,15.653,0,0,1-.86-5.883l.841-18.66,22.154.938-.346,46.167a1.291,1.291,0,0,1-1.186,1.27l-4.3.324C784.761,713.022,784.728,713.023,784.695,713.023Z" transform="translate(-592.04 -475.623)" fill="#2f2e41"/>
    <circle id="Ellipse_17" data-name="Ellipse 17" cx="7.45" cy="7.45" r="7.45" transform="translate(181.544 131.541)" fill="#ffb8b8"/>
    <path id="Path_79" data-name="Path 79" d="M785.325,576.835c-1.962,0-4.4-.16-6.921-.326a87.456,87.456,0,0,0-9.668-.307,2.113,2.113,0,0,1-1.89-.823c-2.742-3.51,1.487-17.2,1.669-17.781l3.441-15.307.148.033-.148-.033a8.225,8.225,0,0,1,6.313-6.481,7.378,7.378,0,0,1,7.6,3.147q.145.2.29.418c5.93,8.783,2.576,30.6,2.351,32.011.313.375,2.007,2.5,1.542,3.971a1.924,1.924,0,0,1-1.529,1.214A14.261,14.261,0,0,1,785.325,576.835Z" transform="translate(-590.88 -386.589)" fill="#ccc"/>
    <path id="Path_80" data-name="Path 80" d="M766.553,577.994a7.938,7.938,0,0,1-2.812-.76c-.527-.22-2.132-.887-.184-17.917.957-8.365,2.328-16.672,2.342-16.755l.013-.08.074-.033c.035-.016,3.537-1.621,4.146-3.684q.032-.107.071-.208a1.894,1.894,0,0,1,2.352-1.155,1.99,1.99,0,0,1,1.5,2.271,13.963,13.963,0,0,1-1.21,3.88c-1.648,3.4-2.764,12.414-2.775,12.5-.063.77-1.559,19.009-1.847,20.393a1.853,1.853,0,0,1-.829,1.362A1.771,1.771,0,0,1,766.553,577.994Z" transform="translate(-588.072 -387.739)" fill="#2f2e41"/>
    <path id="Path_81" data-name="Path 81" d="M799.976,578.241a.613.613,0,0,1-.376-.129c-2.191-1.666,1.355-21.854,3.459-28.819.421-1.395.8-2.589,1.115-3.551h0a27.072,27.072,0,0,0,1.21-5.31c.116-.978.367-1.537.77-1.708a.977.977,0,0,1,.977.241,11.565,11.565,0,0,1,5.581,1.571l1.575.786,1.767,31.286c-.05,2-3.986,3.406-5.7,3.5-2.756.144-7.706.593-9.888,1.974a.912.912,0,0,1-.486.163Z" transform="translate(-614.087 -388.69)" fill="#2f2e41"/>
    <path id="Path_82" data-name="Path 82" d="M758.822,581.867l-.078,0-3.569-.22a1.283,1.283,0,0,1-1.19-1.472l1.615-10.7,3.04-15.013a2.693,2.693,0,0,1,3.446-2.035h0a2.708,2.708,0,0,1,1.853,3l-2.416,15.043-1.43,10.3A1.289,1.289,0,0,1,758.822,581.867Z" transform="translate(-581.874 -398.22)" fill="#2f2e41"/>
    <path id="Path_83" data-name="Path 83" d="M789.4,487.962a7.948,7.948,0,1,0-1.489-15.719,9.136,9.136,0,0,0-5.452-1.494,5.344,5.344,0,0,0-4.511,3.082,3.816,3.816,0,0,0,1.828,4.846,6.893,6.893,0,0,0,3.637.052,5.424,5.424,0,0,1,3.6.318c1.057.627,1.532,2.307.585,3.09a3.257,3.257,0,0,0-.935,3.585A3.563,3.563,0,0,0,789.4,487.962Z" transform="translate(-599.084 -341.717)" fill="#2f2e41"/>
    <path id="Path_84" data-name="Path 84" d="M745.048,529.751a7.324,7.324,0,0,0,0,14.647h0a7.324,7.324,0,1,0,0-14.647Z" transform="translate(-570.475 -382.681)" fill="#69a03a"/>
    <path id="Path_395" data-name="Path 395" d="M752.9,548.953a.888.888,0,0,1-.535-.178l-.01-.007-2.014-1.541a.9.9,0,0,1,1.089-1.421l1.3,1,3.082-4.022a.9.9,0,0,1,1.254-.166h0l-.019.027.02-.027a.9.9,0,0,1,.166,1.255L753.61,548.6a.9.9,0,0,1-.712.349Z" transform="translate(-578.96 -391.531)" fill="#fff"/>
    <path id="Path_85" data-name="Path 85" d="M747.714,596.706h-25.7a2.6,2.6,0,0,0-2.6,2.6v25.7a2.6,2.6,0,0,0,2.6,2.6h25.7a2.6,2.6,0,0,0,2.6-2.6v-25.7A2.6,2.6,0,0,0,747.714,596.706Z" transform="translate(-558.008 -429.004)" fill="#69a03a"/>
    <path id="Path_86" data-name="Path 86" d="M756.063,636.483l-12.136,2.363a2.769,2.769,0,0,1-3.243-2.186l-.933-4.79a2.769,2.769,0,0,1,2.186-3.243l12.136-2.363a2.768,2.768,0,0,1,3.243,2.186l.933,4.791A2.769,2.769,0,0,1,756.063,636.483Z" transform="translate(-572.015 -449.613)" fill="#fff"/>
    <path id="Path_87" data-name="Path 87" d="M762.588,638.453l-9.262,1.8a.651.651,0,1,1-.249-1.277l9.261-1.8a.651.651,0,0,1,.249,1.278Z" transform="translate(-580.884 -457.279)" fill="#69a03a"/>
    <path id="Path_88" data-name="Path 88" d="M766.923,647.259l-4.79.933a.651.651,0,1,1-.249-1.278l4.791-.933a.651.651,0,0,1,.249,1.277Z" transform="translate(-586.998 -463.395)" fill="#69a03a"/>
    <path id="Path_89" data-name="Path 89" d="M750.317,599.309v3.416H719.407v-3.416a2.6,2.6,0,0,1,2.6-2.6h25.7a2.6,2.6,0,0,1,2.6,2.6Z" transform="translate(-558.008 -429.188)" fill="#3f3d56"/>
    <path id="Path_90" data-name="Path 90" d="M809.174,603.213a2.844,2.844,0,0,1,4.314-.635l5.852-2.827,2.585,3.137-8.321,3.876a2.86,2.86,0,0,1-4.432-3.552Z" transform="translate(-620.931 -431.289)" fill="#ffb8b8"/>
    <path id="Path_91" data-name="Path 91" d="M832.069,569.028a1.284,1.284,0,0,1-1.248-.983l-.85-3.534a1.278,1.278,0,0,1,.588-1.4l5.127-3.068-2.621-9.595a3.283,3.283,0,0,1,.115-2.063h0a3.262,3.262,0,0,1,6.131.188l2.893,8.834a5.332,5.332,0,0,1-1.948,6l-7.437,5.38A1.281,1.281,0,0,1,832.069,569.028Z" transform="translate(-635.98 -394.126)" fill="#2f2e41"/>
    <path id="Path_92" data-name="Path 92" d="M793.142,849.035H762.2a.3.3,0,1,1,0-.607h30.937a.3.3,0,0,1,0,.607Z" transform="translate(-588.3 -603.891)" fill="#ccc"/>
</svg>
